<?xml version="1.0" encoding="utf-8"?>
<!-- Generator: Adobe Illustrator 16.0.0, SVG Export Plug-In . SVG Version: 6.00 Build 0)  -->
<!DOCTYPE svg PUBLIC "-//W3C//DTD SVG 1.1//EN" "http://www.w3.org/Graphics/SVG/1.1/DTD/svg11.dtd">
<svg version="1.1" id="Layer_1" xmlns="http://www.w3.org/2000/svg" xmlns:xlink="http://www.w3.org/1999/xlink" x="0px" y="0px"
	 width="30px" height="30px" viewBox="0 0 30 30" enable-background="new 0 0 30 30" xml:space="preserve">
<g id="Layer_2">
	<g>
		<path fill="#FFFFFF" d="M28.069,1.062C28.582,1.062,29,1.48,29,1.994v26.075C29,28.582,28.582,29,28.069,29H1.994
			c-0.514,0-0.932-0.418-0.932-0.931V1.994c0-0.514,0.418-0.932,0.932-0.932H28.069 M28.069,0.062H1.994
			c-1.067,0-1.932,0.865-1.932,1.932v26.075C0.062,29.135,0.927,30,1.994,30h26.075C29.135,30,30,29.135,30,28.069V1.994
			C30,0.927,29.135,0.062,28.069,0.062L28.069,0.062z"/>
	</g>
</g>
<g id="Layer_3">
	<path fill="#FFFFFF" d="M22.124,27.829h-5.112V15.458h-2.554v-4.264h2.554v-2.56c0-3.478,1.441-5.546,5.539-5.546h3.41v4.264H23.83
		c-1.595,0-1.7,0.596-1.7,1.708l-0.006,2.134h3.862l-0.452,4.264h-3.41V27.829z"/>
</g>
</svg>
