<?xml version="1.0" encoding="utf-8"?>
<!-- Generator: Adobe Illustrator 16.0.0, SVG Export Plug-In . SVG Version: 6.00 Build 0)  -->
<!DOCTYPE svg PUBLIC "-//W3C//DTD SVG 1.1//EN" "http://www.w3.org/Graphics/SVG/1.1/DTD/svg11.dtd">
<svg version="1.1" id="Layer_1" xmlns="http://www.w3.org/2000/svg" xmlns:xlink="http://www.w3.org/1999/xlink" x="0px" y="0px"
	 width="30px" height="30px" viewBox="0 0 30 30" enable-background="new 0 0 30 30" xml:space="preserve">
<g>
	<path fill="#FFFFFF" d="M27.799,1.173C28.461,1.173,29,1.685,29,2.314v25.431c0,0.631-0.539,1.145-1.201,1.145H2.475
		c-0.657,0-1.192-0.514-1.192-1.145V2.314c0-0.629,0.535-1.141,1.192-1.141H27.799 M27.799,0.173H2.475
		c-1.209,0-2.192,0.959-2.192,2.141v25.431c0,1.184,0.983,2.145,2.192,2.145h25.324c1.211,0,2.201-0.961,2.201-2.145V2.314
		C30,1.132,29.01,0.173,27.799,0.173L27.799,0.173z"/>
</g>
<path fill="#FFFFFF" d="M4.68,11.314h4.415v14.181H4.68V11.314z M6.888,4.264c1.412,0,2.557,1.145,2.557,2.555
	c0,1.411-1.145,2.556-2.557,2.556c-1.417,0-2.559-1.146-2.559-2.556C4.329,5.409,5.471,4.264,6.888,4.264"/>
<path fill="#FFFFFF" d="M11.861,11.314h4.228v1.937h0.061c0.588-1.115,2.028-2.291,4.174-2.291c4.463,0,5.287,2.937,5.287,6.755
	v7.779h-4.405V18.6c0-1.646-0.032-3.761-2.292-3.761c-2.295,0-2.646,1.791-2.646,3.641v7.016h-4.405V11.314z"/>
</svg>
