<?xml version="1.0" encoding="utf-8"?>
<!-- Generator: Adobe Illustrator 16.0.0, SVG Export Plug-In . SVG Version: 6.00 Build 0)  -->
<!DOCTYPE svg PUBLIC "-//W3C//DTD SVG 1.1//EN" "http://www.w3.org/Graphics/SVG/1.1/DTD/svg11.dtd">
<svg version="1.1" id="Layer_1" xmlns="http://www.w3.org/2000/svg" xmlns:xlink="http://www.w3.org/1999/xlink" x="0px" y="0px"
	 width="313.458px" height="374.365px" viewBox="0 0 313.458 374.365" enable-background="new 0 0 313.458 374.365"
	 xml:space="preserve">
<g id="Layer_1_1_">
	<g>
		<path fill="#FFFFFF" d="M307.442,134.668l-3.969-6.86l-14.15-24.51c-4.77-8.26-7.07-15.41-7.07-20.63c0-3.84,1.24-6.62,3.683-8.03
			c-5.74,3.31-14.819-2.91-23.103-17.25l-14.147-24.521l-3.961-6.85c-3.108-5.38-6.353-9.6-9.699-12.59
			c-4.229-1.37-9.43-2.03-15.541-2.03h-36.22c-8.28,0-14.909-1.21-19.479-3.22c-4.552-2.021-7.042-4.87-7.042-8.18
			c0,6.619-9.92,11.399-26.489,11.399h-36.24c-6.17,0-11.399,0.67-15.659,2.07c-3.33,2.979-6.521,7.17-9.611,12.5l-3.92,6.8
			l-14.189,24.58c-6.82,11.83-14.21,18.14-19.8,18.14c-1.19,0-2.3-0.279-3.31-0.87c5.729,3.311,4.89,14.301-3.391,28.641
			l-14.25,24.66l-3.87,6.72c-3.069,5.33-5.11,10.18-6.01,14.55c0.89,4.41,2.931,9.29,6.03,14.67l3.89,6.74l14.229,24.64
			c4.761,8.25,7.061,15.369,7.061,20.58c0,3.84-1.25,6.619-3.689,8.029c5.739-3.311,14.84,2.939,23.129,17.291l14.181,24.568
			l3.93,6.812c3.04,5.239,6.19,9.379,9.45,12.357c4.29,1.432,9.57,2.12,15.8,2.12h36.24c8.28,0,14.91,1.2,19.472,3.222
			c4.549,2.028,7.028,4.87,7.028,8.18c0-6.629,9.94-11.399,26.511-11.399h36.229c6.16,0,11.393-0.658,15.631-2.06
			c3.32-2.98,6.512-7.17,9.592-12.48l3.979-6.891l14.129-24.489c6.82-11.83,14.201-18.14,19.801-18.14
			c1.189,0,2.302,0.289,3.312,0.869c-5.729-3.311-4.899-14.289,3.381-28.63l14.14-24.49l3.979-6.88
			c3.08-5.35,5.121-10.22,6.021-14.61C312.532,144.838,310.512,139.998,307.442,134.668z M302.512,158.317l-3.799,6.561
			l-2.103,3.649l-13.721,23.781c-5.399,9.358-7.899,15.68-7.899,20.17c0,2.879,1.03,5.039,2.979,6.75
			c-6.289-2.121-11.99,2.35-20.869,17.739l-13.711,23.75l-2.119,3.659l-3.78,6.562c-1.869,3.24-3.777,6-5.789,8.119l-0.011,0.01
			c-2.819,0.681-6.159,0.94-9.93,0.94h-39.22c-8.869,0-15.012,0.681-19.069,2.181c-4.062,1.5-6.062,3.81-6.721,7.069
			c-1.289-6.512-8.01-9.25-25.779-9.25h-39.23c-3.75,0-7.079-0.262-9.899-0.932c-0.05-0.011-0.101-0.021-0.149-0.028h-0.01
			c-1.961-2.109-3.851-4.842-5.701-8.052l-3.72-6.47l-2.21-3.811l-13.68-23.699c-7.52-13.021-12.78-18.24-18.04-18.24
			c-0.931,0-1.89,0.16-2.851,0.49c5-4.392,4-11.521-4.899-26.9l-13.75-23.85l-2.149-3.72l-3.721-6.42
			c-1.88-3.261-3.33-6.311-4.16-9.09c-0.01-0.021-0.01-0.04-0.02-0.061c0.83-2.8,2.279-5.84,4.16-9.1l3.67-6.351l2.22-3.83
			l13.729-23.8c5.391-9.33,7.86-15.64,7.86-20.149c0-2.92-1.03-5.08-3-6.79c6.29,2.109,12.05-2.32,20.92-17.71l13.75-23.801
			l2.16-3.72l3.71-6.47c1.891-3.26,3.811-6.04,5.82-8.16c2.83-0.68,6.199-0.94,9.959-0.94h39.23c8.881,0,15-0.68,19.061-2.189
			c4.07-1.5,6.07-3.811,6.709-7.07c1.3,6.51,8.031,9.26,25.8,9.26h39.222c3.729,0,7.062,0.261,9.881,0.92l0.01,0.011
			c2.011,2.13,3.959,4.92,5.851,8.22l3.762,6.51l2.09,3.63l13.77,23.841c7.529,13.06,12.603,18.34,17.789,18.34
			c0.951,0,1.871-0.17,2.82-0.49c-4.979,4.37-3.719,11.42,5.17,26.8l13.721,23.76l2.131,3.71l3.771,6.511
			c1.871,3.25,3.32,6.279,4.149,9.06C305.842,152.008,304.393,155.057,302.512,158.317z"/>
	</g>
</g>
<g id="Layer_2">
</g>
<polyline fill="#663366" points="205.913,159.386 205.913,138.985 68.782,68.647 68.782,89.049 "/>
<polyline fill="#009999" points="107.545,159.386 107.545,138.985 244.672,68.647 244.672,89.049 "/>
<polyline fill="#33CCCC" points="107.545,138.998 107.545,159.397 244.672,229.733 244.672,209.333 "/>
<polyline fill="#993399" points="205.913,138.998 205.913,159.397 68.782,229.733 68.782,209.333 "/>
<text transform="matrix(1 0 0 1 14.2178 353.3184)" fill="#FFFFFF" font-family="'LetterGothicStd-Slanted'" font-size="31.0665" letter-spacing="13">chrischan</text>
</svg>
