<?xml version="1.0" encoding="utf-8"?>
<!-- Generator: Adobe Illustrator 16.0.0, SVG Export Plug-In . SVG Version: 6.00 Build 0)  -->
<!DOCTYPE svg PUBLIC "-//W3C//DTD SVG 1.1//EN" "http://www.w3.org/Graphics/SVG/1.1/DTD/svg11.dtd">
<svg version="1.1" id="Layer_1" xmlns="http://www.w3.org/2000/svg" xmlns:xlink="http://www.w3.org/1999/xlink" x="0px" y="0px"
	 width="72.849px" height="69.349px" viewBox="0 0 72.849 69.349" enable-background="new 0 0 72.849 69.349" xml:space="preserve">
<g id="Layer_1_1_">
	<g>
		<path fill="#FFFFFF" d="M71.45,31.298l-0.922-1.594l-3.289-5.696c-1.108-1.919-1.644-3.581-1.644-4.794
			c0-0.892,0.289-1.538,0.856-1.866c-1.334,0.77-3.443-0.676-5.369-4.009l-3.287-5.699l-0.921-1.592
			c-0.722-1.25-1.476-2.231-2.254-2.926c-0.982-0.318-2.191-0.472-3.611-0.472H42.59c-1.924,0-3.465-0.281-4.527-0.749
			C37.005,1.432,36.427,0.77,36.427,0c0,1.538-2.305,2.649-6.156,2.649h-8.422c-1.434,0-2.649,0.155-3.64,0.481
			c-0.774,0.692-1.515,1.666-2.233,2.905l-0.911,1.58l-3.297,5.712c-1.585,2.749-3.303,4.216-4.602,4.216
			c-0.276,0-0.534-0.064-0.769-0.202c1.332,0.77,1.136,3.324-0.788,6.656l-3.312,5.731l-0.899,1.562
			C0.684,32.529,0.209,33.657,0,34.672c0.207,1.025,0.681,2.159,1.401,3.409l0.904,1.566l3.307,5.727
			c1.106,1.917,1.641,3.571,1.641,4.782c0,0.893-0.291,1.539-0.857,1.866c1.334-0.77,3.449,0.683,5.375,4.019l3.296,5.71
			l0.914,1.583c0.707,1.218,1.438,2.18,2.196,2.873c0.997,0.332,2.224,0.492,3.672,0.492h8.422c1.924,0,3.465,0.279,4.525,0.749
			c1.057,0.472,1.633,1.132,1.633,1.901c0-1.541,2.31-2.649,6.161-2.649h8.42c1.432,0,2.648-0.153,3.633-0.479
			c0.771-0.693,1.513-1.666,2.229-2.9l0.925-1.602l3.284-5.691c1.585-2.75,3.3-4.216,4.602-4.216c0.276,0,0.535,0.067,0.77,0.202
			c-1.332-0.77-1.139-3.321,0.786-6.654l3.286-5.691l0.924-1.599c0.716-1.244,1.191-2.375,1.4-3.396
			C72.632,33.662,72.163,32.537,71.45,31.298z M70.304,36.794l-0.883,1.525l-0.489,0.848l-3.189,5.527
			c-1.254,2.175-1.835,3.644-1.835,4.688c0,0.669,0.24,1.171,0.692,1.569c-1.461-0.493-2.787,0.546-4.851,4.123l-3.187,5.52
			l-0.492,0.85l-0.878,1.525c-0.435,0.753-0.878,1.395-1.346,1.887l-0.003,0.002c-0.655,0.158-1.431,0.218-2.307,0.218h-9.116
			c-2.061,0-3.489,0.158-4.431,0.507c-0.944,0.349-1.409,0.885-1.562,1.643c-0.3-1.514-1.861-2.15-5.991-2.15H21.32
			c-0.871,0-1.645-0.061-2.3-0.217c-0.012-0.002-0.023-0.005-0.035-0.006h-0.002c-0.456-0.49-0.895-1.125-1.325-1.872l-0.864-1.504
			l-0.514-0.885L13.1,55.084c-1.748-3.026-2.97-4.239-4.193-4.239c-0.216,0-0.439,0.038-0.663,0.114
			c1.162-1.021,0.93-2.678-1.139-6.252l-3.195-5.543l-0.5-0.864l-0.865-1.492C2.11,36.05,1.772,35.341,1.58,34.695
			c-0.002-0.005-0.002-0.009-0.004-0.015c0.192-0.65,0.53-1.357,0.967-2.114l0.853-1.476l0.516-0.89l3.191-5.531
			c1.252-2.168,1.827-3.635,1.827-4.683c0-0.679-0.24-1.181-0.697-1.578c1.461,0.49,2.8-0.539,4.862-4.116l3.196-5.531l0.501-0.865
			l0.862-1.503c0.439-0.757,0.886-1.404,1.353-1.896c0.658-0.158,1.44-0.219,2.314-0.219h9.118c2.064,0,3.486-0.158,4.43-0.508
			c0.946-0.349,1.411-0.886,1.559-1.643c0.302,1.513,1.867,2.152,5.996,2.152h9.116c0.867,0,1.642,0.061,2.296,0.214l0.002,0.002
			c0.467,0.495,0.92,1.144,1.36,1.911l0.875,1.513l0.485,0.844l3.2,5.541c1.75,3.035,2.929,4.263,4.134,4.263
			c0.221,0,0.435-0.04,0.655-0.114c-1.157,1.016-0.864,2.654,1.202,6.229l3.189,5.522l0.495,0.862l0.876,1.513
			c0.436,0.755,0.772,1.459,0.965,2.105C71.078,35.328,70.741,36.037,70.304,36.794z"/>
	</g>
</g>
<g id="Layer_2">
</g>
<polyline fill="#663366" points="47.854,37.042 47.854,32.302 15.984,15.955 15.984,20.696 "/>
<polyline fill="#009999" points="24.993,37.042 24.993,32.302 56.862,15.955 56.862,20.696 "/>
<polyline fill="#33CCCC" points="24.993,32.305 24.993,37.045 56.862,53.392 56.862,48.65 "/>
<polyline fill="#993399" points="47.854,32.305 47.854,37.045 15.984,53.392 15.984,48.65 "/>
</svg>
