<?xml version="1.0" encoding="utf-8"?>
<!-- Generator: Adobe Illustrator 16.0.0, SVG Export Plug-In . SVG Version: 6.00 Build 0)  -->
<!DOCTYPE svg PUBLIC "-//W3C//DTD SVG 1.1//EN" "http://www.w3.org/Graphics/SVG/1.1/DTD/svg11.dtd">
<svg version="1.1" id="Layer_1" xmlns="http://www.w3.org/2000/svg" xmlns:xlink="http://www.w3.org/1999/xlink" x="0px" y="0px"
	 width="66.646px" height="28.863px" viewBox="0 0 66.646 28.863" enable-background="new 0 0 66.646 28.863" xml:space="preserve">
<path fill="#1B1464" d="M10.475,13.311c-0.301-0.574-0.641-1.126-0.909-1.717c-0.29-0.639-0.514-1.307-0.713-1.979
	c-0.398-1.34-0.601-2.743-1.041-4.067C7.654,5.072,7.05,5.301,6.901,5.654C6.41,6.815,6.018,7.988,5.72,9.214
	c-0.097,0.401-0.188,0.804-0.278,1.207c-0.024-0.263-0.051-0.525-0.085-0.785C5.222,8.61,4.989,7.5,4.285,6.701
	c-0.168-0.19-0.438-0.189-0.624-0.014c-0.949,0.898-1.407,2.11-1.683,3.385C1.765,8.938,1.519,7.81,1.245,6.69
	c-0.054-0.219-0.31-0.248-0.479-0.153c-0.209,0.117-0.3,0.339-0.264,0.567c0.327,2.083,0.69,4.159,0.984,6.248
	c0.087,0.618,0.899,0.413,0.967-0.115c0.135-1.041,0.221-2.087,0.423-3.118C3.038,9.3,3.283,8.433,3.799,7.761
	c0.416,0.69,0.548,1.523,0.643,2.317c0.129,1.086,0.159,2.182,0.379,3.256c0.043,0.212,0.295,0.298,0.481,0.25
	c0.238-0.061,0.383-0.262,0.446-0.487c0.331-1.199,0.565-2.42,0.844-3.631c0.16-0.694,0.33-1.404,0.562-2.088
	C7.372,8.341,7.62,9.3,7.893,10.24c0.388,1.334,0.892,2.815,1.899,3.811c0.146,0.145,0.413,0.045,0.54-0.066
	C10.531,13.811,10.597,13.545,10.475,13.311z"/>
<path fill="#1B1464" d="M12.018,12.05c-0.131-0.458-0.244-0.922-0.345-1.388c-0.198-0.912-0.342-1.839-0.447-2.767
	c-0.029-0.253-0.167-0.541-0.458-0.563c-0.271-0.021-0.438,0.25-0.427,0.495c0.044,0.996,0.139,1.982,0.303,2.966
	c0.078,0.47,0.176,0.936,0.284,1.399s0.176,1.253,0.723,1.392c0.163,0.042,0.297,0.025,0.416-0.106
	C12.441,13.062,12.149,12.511,12.018,12.05z"/>
<path fill="#1B1464" d="M12.005,3.217c-0.467-0.324-1.03-0.436-1.538-0.291c0.003-0.003,0.006-0.007,0.01-0.01
	c0.177-0.177,0.128-0.427-0.064-0.571c-0.212-0.159-0.49-0.151-0.699,0C9.101,2.789,8.695,3.393,8.663,4.158
	C8.64,4.697,8.962,5.251,9.401,5.549c0.521,0.354,1.196,0.424,1.755,0.112c0.685-0.384,0.96-1.209,1.055-1.941
	C12.236,3.529,12.169,3.331,12.005,3.217z M10.445,4.778c0.122-0.096-0.146,0.045-0.077,0.03c-0.02,0.006-0.041,0.011-0.061,0.017
	c-0.004,0.001-0.006,0.001-0.009,0.002c-0.006,0-0.012,0-0.02,0.001c-0.011,0-0.029,0-0.045,0c-0.021-0.004-0.042-0.009-0.062-0.014
	c-0.001,0-0.002-0.001-0.003-0.001c-0.015-0.006-0.048-0.024-0.072-0.037c-0.035-0.028-0.08-0.064-0.094-0.074
	c-0.043-0.055-0.105-0.14-0.099-0.123c-0.033-0.061-0.059-0.125-0.08-0.19c0.009,0.023-0.013-0.065-0.015-0.08
	c-0.01-0.057-0.012-0.115-0.014-0.173c0-0.016,0.013-0.133,0.039-0.243c0.004-0.019,0.009-0.035,0.013-0.05
	c0.055,0.037,0.117,0.065,0.18,0.082c-0.094-0.011-0.068,0.001,0.078,0.038c0.074,0.01,0.149,0.016,0.224,0.017
	c0.137,0.006,0.274,0.002,0.409-0.023c0.071-0.014,0.133-0.031,0.193-0.041c-0.032,0.138-0.072,0.269-0.122,0.381
	C10.691,4.559,10.645,4.622,10.445,4.778z"/>
<path fill="#1B1464" d="M20.531,9.125c-0.664-0.882-2.03-1.062-3.042-1.172c-1.108-0.121-2.22-0.067-3.33-0.084
	c0.31-0.296,0.703-0.513,1.121-0.67c0.489-0.183,1.147-0.27,1.441,0.151c0.281,0.401,1.005-0.121,0.838-0.535
	c-0.366-0.91-1.556-0.903-2.354-0.679c-1.099,0.308-2.146,1.054-2.623,2.112c-0.16,0.355,0.049,0.707,0.432,0.742
	c1.039,0.093,2.091,0.021,3.132,0.063c0.585,0.023,1.21,0.069,1.759,0.17c0.26,0.048,0.518,0.113,0.769,0.195
	c0.272,0.089,0.52,0.127,0.753,0.281C19.746,9.91,20,10.086,20,10.499c0,0.006,0,0.011,0,0.017c0,0.009-0.165,0.022-0.167,0.045
	c-0.006,0.051-0.099,0.102-0.111,0.152c0.024-0.101-0.076,0.059-0.111,0.142c-0.002-0.008-0.097,0.098-0.141,0.156
	c-0.02,0.021-0.057,0.05-0.066,0.058c-0.055,0.05-0.12,0.095-0.18,0.139c-0.01,0.008-0.082,0.053-0.096,0.063
	c-0.036,0.021-0.073,0.041-0.109,0.061c-0.109,0.06-0.224,0.11-0.338,0.158c-0.242,0.103-0.413,0.149-0.725,0.221
	c-0.569,0.131-1.023,0.167-1.596,0.156c-0.189-0.004-0.378-0.018-0.565-0.04c-0.016-0.001-0.159-0.022-0.167-0.022
	c-0.081-0.015-0.161-0.032-0.241-0.052c-0.142-0.035-0.284-0.079-0.422-0.126c-0.066-0.022-0.133-0.042-0.2-0.064
	c-0.297-0.095,0.036,0.024-0.179-0.037c-0.346-0.098-0.89,0.313-0.702,0.698c0.231,0.475,0.698,0.646,1.189,0.741
	c0.55,0.107,1.107,0.133,1.667,0.1c1.15-0.067,2.404-0.334,3.313-1.086C20.889,11.288,21.218,10.038,20.531,9.125z"/>
<path fill="#1B1464" d="M28.336,9.143c-0.061-0.57-0.386-1.005-0.859-1.31c-0.949-0.61-2.3-0.606-3.383-0.652
	c-0.802-0.033-1.605-0.033-2.407-0.075c-0.193-0.01-0.566-0.045-0.847-0.088c0.098-0.103,0.195-0.183,0.347-0.304
	c0.446-0.355,0.927-0.6,1.472-0.794c0.398-0.142,0.836-0.217,1.221-0.134c0.101,0.022,0.058,0.004,0.168,0.067
	c0.005,0.003,0.044,0.034,0.059,0.043c0.025,0.029,0.066,0.081,0.059,0.064c0.094,0.155,0.131,0.302,0.1,0.464
	c-0.09,0.469,0.458,0.587,0.562,0.12c0.139-0.628,0.208-1.189-0.387-1.647c-0.458-0.352-1.159-0.295-1.688-0.191
	c-1.328,0.263-2.879,1.131-3.404,2.448c-0.123,0.308-0.096,0.719,0.229,0.897c0.922,0.506,2.152,0.426,3.167,0.45
	c1.195,0.028,2.372-0.006,3.536,0.297c0.058,0.015,0.115,0.033,0.171,0.051c0.007,0.002,0.073,0.026,0.099,0.035
	c0.086,0.036,0.171,0.076,0.253,0.121c0.043,0.024,0.085,0.051,0.127,0.078c0.006,0.003,0.01,0.006,0.015,0.009
	c0.003,0.002,0.006,0.005,0.01,0.008c0.035,0.029,0.066,0.062,0.098,0.095c0.009,0.01,0.017,0.017,0.023,0.024
	c0.001,0.004,0.005,0.011,0.012,0.022c0.007,0.011,0.02,0.036,0.029,0.056c0.004,0.015-0.058,0.028-0.055,0.033
	C27.064,9.356,27,9.382,27,9.408c0,0.002,0,0.004,0,0.006c0,0.003,0.064,0.006,0.063,0.01c-0.003,0.023,0.024,0.046,0.018,0.069
	c-0.005,0.015-0.007,0.077-0.017,0.099C27.043,9.64,27.026,9.687,27,9.734c-0.006,0.011-0.006,0.019-0.008,0.023
	c-0.007,0.009-0.019,0.026-0.043,0.06c-0.256,0.351-0.658,0.636-1.032,0.822c-0.494,0.245-0.827,0.346-1.354,0.36
	c-0.012,0-0.067-0.002-0.093-0.003c-0.052-0.006-0.104-0.014-0.155-0.024c-0.021-0.004-0.111-0.032-0.132-0.036
	c-0.037-0.018-0.073-0.037-0.108-0.058c-0.007-0.004-0.013-0.007-0.018-0.01c-0.046-0.04-0.092-0.079-0.134-0.123
	c-0.008-0.01-0.014-0.017-0.019-0.022c-0.01-0.015-0.02-0.03-0.029-0.045c-0.038-0.06-0.079-0.118-0.12-0.175
	c-0.005-0.014-0.01-0.028-0.016-0.042c-0.023-0.054-0.028-0.065-0.014-0.033c-0.166-0.482-0.747-0.399-0.837,0.095
	c-0.051,0.281-0.114,0.488,0.005,0.827c0.111,0.314,0.285,0.537,0.552,0.734c0.395,0.291,0.97,0.325,1.438,0.279
	c1.108-0.107,2.28-0.76,2.95-1.647C28.169,10.273,28.396,9.708,28.336,9.143z"/>
<path fill="#1B1464" d="M30.109,9.938c-0.272-0.596-0.488-1.217-0.702-1.836c-0.216-0.626-0.423-1.255-0.659-1.875
	c-0.142-0.374-0.309-1.065-0.713-1.259c-0.25-0.253-0.822,0.09-0.716,0.432c-0.053,0.424,0.259,0.984,0.373,1.345
	c0.201,0.635,0.391,1.274,0.595,1.908c0.199,0.618,0.407,1.235,0.666,1.833c0.2,0.462,0.491,1.266,1.111,1.251
	c0.294-0.007,0.576-0.208,0.594-0.52C30.685,10.76,30.284,10.319,30.109,9.938z"/>
<path fill="#1B1464" d="M29.619,1.895c-0.447-0.85-1.215-1.494-2.125-1.79c-0.976-0.318-1.975,0.115-2.429,0.959
	c-0.372,0.091-0.443,0.541-0.295,0.952c0.214,0.594,0.741,1.092,1.213,1.487c0.549,0.46,1.136,0.778,1.854,0.838
	c0.493,0.041,1.019-0.02,1.449-0.278C30.057,3.602,29.985,2.591,29.619,1.895z M28.603,2.951c-0.008,0.005-0.022,0.019-0.046,0.047
	c-0.002,0.003-0.005,0.006-0.009,0.009c-0.024,0.018-0.049,0.035-0.075,0.051c-0.011,0.007-0.041,0.022-0.059,0.031
	c-0.026,0.009-0.051,0.018-0.077,0.026c-0.2,0.066-0.346,0.071-0.638,0.065c-0.484-0.01-0.929-0.352-1.365-0.738
	c-0.212-0.188-0.364-0.346-0.538-0.573c-0.003-0.005-0.007-0.01-0.011-0.015c0.106-0.101,0.213-0.197,0.297-0.264
	c0.084-0.067,0.172-0.131,0.263-0.189c0.043-0.028,0.088-0.051,0.132-0.076c0.019-0.01,0.025-0.015,0.027-0.017
	c0.008-0.002,0.026-0.009,0.061-0.021c0.038-0.015,0.23-0.057,0.203-0.057c0.077-0.008,0.155-0.009,0.232-0.009
	c0.015,0,0.056,0.003,0.079,0.004c0.025,0.004,0.051,0.009,0.076,0.013c0.045,0.008,0.09,0.02,0.134,0.031
	c0.022,0.005,0.039,0.009,0.049,0.012c0.004,0.001,0.007,0.003,0.012,0.005c0.088,0.033,0.173,0.074,0.257,0.117
	c0.042,0.022,0.083,0.046,0.125,0.07c0,0,0,0,0,0c0.003,0.002,0.006,0.004,0.011,0.008c0.079,0.054,0.155,0.114,0.229,0.175
	c0.036,0.03,0.184,0.177,0.192,0.18c0.109,0.121,0.207,0.252,0.295,0.39c0.002,0.004,0.004,0.008,0.007,0.013
	c0.021,0.038,0.04,0.077,0.058,0.116c0.018,0.038,0.073,0.196,0.082,0.211c0.013,0.054,0.023,0.108,0.031,0.163
	c0.002,0.014,0.003,0.024,0.005,0.031c-0.002,0.012-0.004,0.03-0.006,0.061c-0.001,0.019-0.002,0.033-0.003,0.044
	c-0.003,0.005-0.009,0.016-0.016,0.036C28.611,2.924,28.605,2.94,28.603,2.951z"/>
<path fill="#1B1464" d="M46.482,10.092c-0.649-0.278-1.24-0.52-1.732-1.012c-0.414-0.413-0.764-1.05-1.006-1.647
	c-0.544-1.336-0.756-2.781-1.316-4.11c-0.146-0.346-0.581-0.554-0.889-0.249c-0.955,0.95-1.484,2.193-1.803,3.506
	c-0.047-0.164-0.098-0.326-0.15-0.487c-0.229-0.692-0.569-1.343-1.211-1.725c-0.38-0.227-0.771-0.233-1.165-0.206
	c-0.257-0.44-0.663-0.775-1.265-0.898c-0.949-0.195-2.013,0.279-2.764,0.816c-0.144,0.104-0.213,0.252-0.224,0.407
	c-0.057,0.033-0.109,0.065-0.155,0.094c-0.537,0.345-1.006,0.809-1.354,1.343c-0.419,0.646-0.626,1.391-0.583,2.16
	c0.036,0.655,0.355,1.267,0.724,1.795c0.439,0.631,1.072,1.18,1.86,1.273c0.699,0.083,1.363-0.232,1.896-0.66
	c1.164-0.937,1.872-2.488,2.147-3.926c0.074-0.39,0.104-0.812,0.066-1.222c0.103,0.041,0.204,0.083,0.301,0.137
	c0.008,0.004,0.013,0.007,0.018,0.01c0.006,0.004,0.013,0.009,0.021,0.016c0.043,0.032,0.083,0.068,0.122,0.104
	c0.017,0.015,0.057,0.061,0.077,0.083c0.031,0.04,0.061,0.081,0.09,0.123c0.037,0.053,0.07,0.108,0.102,0.164
	c0.01,0.017,0.019,0.034,0.027,0.051c0.01,0.019,0.03,0.061,0.037,0.075c0.076,0.166,0.137,0.339,0.193,0.512
	c0.359,1.089,0.514,2.236,0.701,3.409c0.043,0.265,0.205,0.518,0.492,0.554c0.329,0.042,0.641-0.264,0.656-0.586
	c0.053-1.044,0.178-2.094,0.434-3.11c0.177-0.7,0.412-1.45,0.813-2.074c0.333,1.167,0.589,2.359,1.07,3.478
	c0.312,0.728,0.728,1.425,1.309,1.97c0.294,0.275,0.645,0.499,1.006,0.672c0.429,0.207,0.851,0.256,1.318,0.232
	C46.832,11.141,46.892,10.267,46.482,10.092z M36.146,5.983c-0.016,0.157,0.042,0.312,0.012,0.467
	c-0.01,0.051,0.021,0.102,0.009,0.153c0.006-0.031-0.026,0.176-0.04,0.224c-0.102,0.342-0.223,0.675-0.376,0.997
	c-0.013,0.028-0.058,0.125-0.078,0.166c-0.03,0.056-0.059,0.113-0.091,0.168c-0.092,0.158-0.189,0.312-0.295,0.461
	c-0.094,0.133-0.193,0.262-0.299,0.386c0,0,0,0,0,0.001c-0.023,0.024-0.047,0.049-0.069,0.073c-0.054,0.056-0.108,0.109-0.165,0.161
	c-0.104,0.096-0.213,0.184-0.328,0.267C34.4,9.523,34.373,9.54,34.347,9.555c-0.067,0.04-0.138,0.075-0.21,0.108
	c-0.025,0.012-0.098,0.038-0.131,0.051c-0.037,0.009-0.073,0.018-0.109,0.025c-0.058,0.012-0.115,0.019-0.173,0.024
	c-0.022-0.001-0.044-0.001-0.066-0.003c-0.063-0.004-0.126-0.015-0.188-0.027c-0.009-0.002-0.016-0.003-0.021-0.004
	c-0.01-0.004-0.022-0.009-0.039-0.015c-0.064-0.023-0.127-0.053-0.188-0.084c-0.028-0.015-0.056-0.031-0.083-0.046
	c-0.008-0.006-0.017-0.013-0.029-0.022c-0.121-0.087-0.231-0.189-0.334-0.296c0.021,0.019-0.115-0.138-0.14-0.17
	c-0.063-0.083-0.122-0.168-0.179-0.255c-0.319-0.483-0.479-0.958-0.383-1.517c0.086-0.5,0.477-1.064,0.87-1.455
	c0.173-0.172,0.334-0.3,0.5-0.4c0.062-0.038,0.129-0.073,0.195-0.105c0.007-0.002,0.016-0.005,0.023-0.008
	c0.217,0.062,0.376-0.053,0.457-0.23c0.703-0.047,1.401-0.094,2.109-0.063c0.016,0.039,0.029,0.078,0.041,0.117
	c0.005,0.015,0.009,0.026,0.012,0.036c0.002,0.01,0.004,0.021,0.007,0.036c0.025,0.134-0.128,0.27-0.123,0.406
	C36.164,5.673,36,5.686,36,5.696c0,0.007,0,0.015,0,0.025C36,5.809,36.154,5.896,36.146,5.983z"/>
<path fill="#1B1464" d="M15.582,24.091c-0.568-0.897-1.831-1.095-2.797-1.179c-1.104-0.099-2.208,0.013-3.311,0.034
	c0.746-0.733,1.792-1.183,2.813-0.799c0.569,0.215,1.107-0.769,0.495-1.019c-1.863-0.762-3.892,0.5-4.888,2.062
	c-0.216,0.34-0.223,0.911,0.303,0.955c0.989,0.084,2.001-0.042,2.993-0.046c0.58-0.003,1.161,0.019,1.735,0.095
	c0.276,0.036,0.421,0.065,0.651,0.133c0.11,0.032,0.218,0.071,0.325,0.113c0.051,0.021,0.101,0.044,0.15,0.067
	c0.042,0.02,0.061,0.027,0.068,0.031c0.002,0.002,0.009,0.006,0.025,0.016c0.085,0.053,0.164,0.113,0.239,0.179
	c0.01,0.01,0.042,0.042,0.059,0.06c0.019,0.023,0.036,0.048,0.054,0.072c0.016,0.022,0.03,0.045,0.043,0.069
	c-0.014-0.022,0.03,0.062,0.038,0.084c0.014,0.037,0.024,0.076,0.033,0.114c-0.021-0.082,0.012,0.098,0.014,0.128
	c0.002,0.044,0.001,0.088,0,0.132c0-0.047-0.006,0.048-0.009,0.066c-0.002,0.011-0.006,0.025-0.011,0.04
	c-0.011,0.026-0.022,0.051-0.035,0.077c-0.007,0.017-0.017,0.033-0.025,0.049c-0.007,0.011-0.044,0.071-0.058,0.09
	c-0.076,0.106-0.163,0.203-0.252,0.299c-0.011,0.012-0.019,0.021-0.024,0.026c-0.005,0.005-0.009,0.009-0.015,0.014
	c-0.045,0.044-0.092,0.084-0.14,0.126c-0.098,0.085-0.201,0.166-0.304,0.244c-0.25,0.189-0.452,0.313-0.652,0.425
	c-0.237,0.13-0.483,0.243-0.735,0.341c-0.281,0.11-0.34,0.129-0.664,0.184c-0.056,0.01-0.111,0.015-0.167,0.021
	c0.033-0.005-0.114,0.003-0.14,0.002c-0.045-0.002-0.088-0.008-0.133-0.014c0.05,0.004-0.107-0.032-0.145-0.048
	c-0.012-0.004-0.021-0.008-0.029-0.01c-0.002-0.002-0.004-0.004-0.007-0.006c-0.027-0.019-0.123-0.117-0.113-0.103
	c-0.082-0.1-0.066-0.115-0.105-0.248c-0.16-0.548-0.945-0.264-1.006,0.203c-0.079,0.6,0.097,1.091,0.637,1.398
	c0.417,0.237,0.993,0.185,1.442,0.089c1.167-0.247,2.281-0.921,3.124-1.752C15.82,26.155,16.197,25.062,15.582,24.091z"/>
<path fill="#1B1464" d="M21.023,21.594c0.083-0.175,0.051-0.349-0.122-0.432c-0.001-0.003-0.005-0.007-0.013-0.013
	c-0.06-0.049-0.152-0.062-0.226-0.073c-0.138-0.024-0.188-0.029-0.33-0.01c-0.044,0.006-0.187,0.051-0.218,0.062
	c-0.26,0.083-0.521,0.158-0.784,0.231c-0.688,0.19-1.38,0.365-2.074,0.535c-0.184,0.044-0.368,0.089-0.552,0.131
	c-0.246-0.729-0.477-1.464-0.691-2.204c-0.086-0.296-0.168-0.593-0.247-0.892c-0.039-0.146-0.076-0.293-0.113-0.438
	c-0.018-0.072-0.036-0.145-0.054-0.217c-0.002-0.007-0.003-0.014-0.005-0.02c0-0.002,0-0.004-0.001-0.007
	c-0.052-0.259-0.073-0.524-0.107-0.786c-0.091-0.701-0.162-1.409-0.367-2.089c-0.062-0.131-0.073-0.152-0.032-0.067
	c-0.022-0.048-0.044-0.094-0.067-0.142c-0.036-0.074-0.125-0.143-0.192-0.184c-0.079-0.049-0.164-0.075-0.256-0.075
	c-0.052,0-0.115,0.04-0.152,0.075c-0.022,0.021-0.097,0.122-0.041,0.054c-0.085,0.102-0.129,0.229-0.167,0.354
	c-0.053,0.177,0.044,0.372,0.169,0.436c0.01,0.087,0.019,0.171,0.026,0.258c0.042,0.518,0.089,1.035,0.124,1.553
	c0.1,1.478,0.581,2.945,1.001,4.356c0.028,0.094,0.057,0.187,0.085,0.281c-0.178,0.038-0.356,0.075-0.535,0.111
	c-0.553,0.115-1.192,0.174-1.708,0.414c-0.25,0.118-0.475,0.605-0.084,0.705c0.546,0.141,1.221-0.026,1.765-0.12
	c0.29-0.05,0.579-0.104,0.868-0.159c0.181,0.542,0.373,1.079,0.571,1.612c0.331,0.887,0.65,1.823,1.113,2.649
	c0.199,0.356,0.68,0.764,1,0.281c0.299-0.451-0.085-1.081-0.273-1.505c-0.391-0.88-0.746-1.776-1.079-2.681
	c-0.071-0.193-0.141-0.386-0.21-0.581c0.118-0.024,0.236-0.048,0.354-0.074c0.714-0.15,1.425-0.314,2.132-0.499
	c0.263-0.068,0.524-0.141,0.784-0.22c0.22-0.067,0.401-0.156,0.551-0.338c0.049-0.06,0.095-0.121,0.13-0.19
	C21.144,21.381,20.995,21.653,21.023,21.594z"/>
<path fill="#1B1464" d="M66.276,10.495c-0.406-0.109-0.915,0.066-1.302,0.18c-0.455,0.133-0.9,0.299-1.339,0.476
	c-0.958,0.385-1.902,0.806-2.844,1.227c-0.186-1.33-0.397-2.656-0.701-3.963C59.992,8,59.883,7.587,59.757,7.179
	c-0.137-0.448-0.254-1.046-0.711-1.251c-0.181-0.081-0.485-0.097-0.583,0.124c-0.13,0.288-0.04,0.521,0.054,0.808
	c0.096,0.295,0.177,0.593,0.253,0.894c0.162,0.638,0.28,1.285,0.396,1.934c0.188,1.06,0.33,2.128,0.465,3.197
	c-0.524,0.221-1.055,0.431-1.594,0.614c-0.4,0.136-0.722,0.239-1.117,0.324c-0.398,0.087-0.899,0.083-1.166,0.437
	c-0.174,0.228-0.195,0.545,0.003,0.764c0.28,0.308,0.859,0.214,1.224,0.16c0.441-0.065,0.877-0.179,1.303-0.31
	c0.518-0.158,1.025-0.346,1.527-0.546c0.325,2.634,0.625,5.333,1.489,7.853c-1.626-1.59-1.54-4.195-2.357-6.188
	c-0.227-0.552-0.93-0.539-1.236-0.05c-0.659,1.05-0.965,2.307-1.293,3.478c-0.208-1.188-0.339-2.513-0.431-3.513
	c0,0-0.001,0-0.002,0c-0.005,0-0.011-0.189-0.018-0.244c-0.093-0.748-1.4-0.463-1.346,0.231c0.013,0.157,0.026,0.294,0.038,0.452
	c0.007,0.137,0.006,0.266,0.003,0.403c-0.007,0.314-0.039,0.623-0.084,0.936c-0.075,0.523-0.267,1.193-0.465,1.75
	c-0.202,0.564-0.438,1.053-0.761,1.595c-0.307,0.511-0.509,0.786-0.951,1.196c-0.025,0.025-0.054,0.049-0.082,0.071
	c-0.018,0.015-0.069,0.057-0.082,0.065c-0.087,0.066-0.18,0.124-0.272,0.178c-0.019,0.011-0.038,0.021-0.058,0.031
	c0.008-0.006-0.071,0.03-0.096,0.04c-0.046,0.018-0.093,0.031-0.139,0.046c-0.016,0.004-0.027,0.008-0.038,0.012
	c-0.005,0-0.011,0.001-0.021,0.002c-0.043,0.007-0.224,0.006-0.216,0.012c-0.065-0.008-0.13-0.021-0.192-0.039
	c0.095,0.022-0.145-0.065-0.19-0.089c-0.01-0.005-0.048-0.03-0.071-0.046c-0.053-0.036-0.104-0.078-0.152-0.119
	c-0.056-0.046-0.102-0.089-0.141-0.128c0.457-0.953,0.817-1.963,1.037-2.992c0.208-0.974,0.376-2.194-0.191-3.085
	c-0.588-0.921-2.054-1.064-2.735-0.18c-0.657,0.852-0.716,2.042-0.682,3.077c0.04,1.194,0.345,2.264,0.949,3.307
	c0.021,0.038,0.044,0.075,0.067,0.112c-0.137,0.24-0.284,0.479-0.445,0.713c-0.032,0.049-0.066,0.097-0.1,0.144
	c-0.02,0.026-0.031,0.044-0.039,0.055c-0.002,0.003-0.008,0.009-0.02,0.024c-0.035,0.045-0.07,0.088-0.107,0.13
	c-1.164-1.655-1.153-3.928-2.139-5.685c-0.338-0.604-1.196-0.131-1.247,0.417c-0.168,1.784,0.013,3.594-0.052,5.382
	c-0.386-1.593-0.492-3.288-0.941-4.836c-0.081-0.281-0.349-0.441-0.634-0.418c-0.326,0.027-0.538,0.241-0.659,0.524
	c-0.634,1.468-1.014,3.024-1.509,4.54c-0.246-1.178-0.42-2.371-0.587-3.562c-0.096-0.672-1.201-0.463-1.303,0.105
	c-0.162,0.911-0.233,1.838-0.416,2.746c-0.088,0.437-0.212,0.864-0.38,1.277c-0.071,0.175-0.173,0.337-0.268,0.498
	c-0.038,0.066-0.08,0.13-0.121,0.193c-0.025,0.036-0.051,0.073-0.077,0.109c-0.008,0.01-0.02,0.023-0.034,0.043
	c-0.09,0.109-0.189,0.212-0.291,0.311c-0.04,0.038-0.08,0.073-0.12,0.109c0.025-0.024-0.093,0.072-0.102,0.079
	c-0.106,0.077-0.221,0.146-0.336,0.213c-0.058,0.031-0.116,0.061-0.175,0.089c0.144-0.069-0.098,0.037-0.125,0.047
	c-0.119,0.046-0.241,0.08-0.364,0.111c-0.018,0.005-0.029,0.008-0.039,0.011c-0.009,0.001-0.02,0.003-0.031,0.005
	c-0.062,0.012-0.124,0.02-0.185,0.026c-0.326,0.04-0.434,0.029-0.678-0.006c-0.453-0.062-0.808-0.225-1.134-0.496
	c-0.057-0.049-0.109-0.097-0.159-0.146c0.792-0.355,1.535-0.825,2.186-1.397c0.464-0.406,0.874-0.957,0.902-1.595
	c0.027-0.613-0.028-1.196-0.502-1.642c-0.84-0.787-2.273-0.234-3.052,0.35c-0.072,0.054-0.141,0.11-0.208,0.167
	c-0.155,0.05-0.294,0.139-0.449,0.228c-0.268,0.153-0.548,0.286-0.833,0.406c-0.664,0.279-1.364,0.464-2.067,0.612
	c-0.244,0.052-0.489,0.099-0.736,0.138c-0.101-0.375-0.199-0.751-0.297-1.128c-0.611-2.373-1.128-4.815-2.102-7.075
	c-0.199-0.461-1.158-0.497-0.975,0.123c0.708,2.387,1.282,4.801,1.87,7.218c0.082,0.34,0.167,0.679,0.253,1.017
	c-0.097,0.008-0.193,0.015-0.29,0.022c-0.319,0.02-0.64,0.022-0.959,0.017c-0.209-0.002-0.439,0.009-0.655,0.001
	c-0.213-0.419-0.445-0.829-0.726-1.206c-0.121-0.161-0.261-0.333-0.435-0.443c-0.118-0.343-0.334-0.636-0.688-0.775
	c-0.854-0.337-1.775,0.604-2.065,1.299c-0.002,0.006-0.005,0.013-0.007,0.02c-0.373,0.299-0.708,0.646-0.996,1
	c-0.735,0.905-1.236,2.054-1.021,3.236c0.057,0.316,0.31,0.53,0.632,0.477c1.916-0.312,3.607-1.697,4.118-3.568
	c0.223,0.469,0.416,0.951,0.6,1.437c0.23,0.607,0.465,1.215,0.704,1.82c0.2,0.508,0.387,1.243,0.946,1.456
	c0.348,0.132,0.625-0.292,0.678-0.565c0.057-0.295-0.109-0.595-0.234-0.851c-0.136-0.275-0.26-0.557-0.382-0.839
	c-0.2-0.456-0.391-0.918-0.593-1.374c0.324,0.048,0.648,0.061,0.976,0.061c0.24,0,0.48-0.008,0.719-0.021
	c0.127,0.461,0.261,0.919,0.402,1.375c0.183,0.592,0.389,1.178,0.612,1.757c0.22,0.569,0.442,1.289,0.917,1.695
	c0.399,0.34,0.959,0.106,0.927-0.422c-0.02-0.316-0.179-0.619-0.297-0.908c-0.116-0.285-0.238-0.566-0.35-0.852
	c-0.213-0.542-0.403-1.092-0.585-1.644c-0.124-0.377-0.24-0.755-0.352-1.135c0.173-0.027,0.345-0.055,0.518-0.087
	c0.702-0.129,1.397-0.308,2.07-0.547c-0.08,0.406-0.095,0.836-0.043,1.281c0.037,0.321,0.119,0.618,0.236,0.888
	c0.015,0.08,0.051,0.156,0.104,0.218c0.752,1.407,2.538,1.994,4.141,1.578c1.092-0.285,2.014-1.078,2.57-2.044
	c0.187-0.323,0.331-0.655,0.449-0.996c0.133,0.638,0.286,1.27,0.475,1.894c0.167,0.551,1.012,0.567,1.25,0.053
	c0.672-1.447,1.07-2.995,1.541-4.519c0.311,1.826,0.541,3.68,1.49,5.296c0.295,0.505,1.11,0.248,1.239-0.259
	c0.358-1.397,0.39-2.829,0.372-4.265c0.32,1.008,0.764,1.948,1.483,2.747c0.211,0.234,0.572,0.142,0.809,0.029
	c0.601-0.285,1.059-0.899,1.421-1.512c0.479,0.357,1.052,0.556,1.687,0.442c1.148-0.204,1.986-1.094,2.624-2.014
	c0.344-0.493,0.643-1.034,0.893-1.605c0.113,0.562,0.244,1.117,0.402,1.668c0.157,0.545,1.012,0.559,1.238,0.05
	c0.571-1.279,0.794-2.717,1.276-4.036c0.477,1.878,0.796,3.817,2.275,5.215c0.407,0.385,1.024,0.018,1.137-0.434
	c0.166,0.43,0.353,0.852,0.572,1.257c0.271,0.5,0.557,1.083,1.182,1.13c0.233,0.017,0.52-0.103,0.546-0.367
	c0.034-0.345-0.123-0.548-0.301-0.822c-0.164-0.255-0.309-0.521-0.444-0.792c-0.273-0.55-0.484-1.126-0.669-1.711
	c-0.436-1.386-0.705-2.821-0.94-4.252c-0.183-1.125-0.329-2.258-0.478-3.391c0.016-0.006,0.031-0.013,0.046-0.02
	c0.954-0.407,1.895-0.845,2.853-1.245c0.441-0.183,0.887-0.358,1.332-0.53c0.389-0.148,0.886-0.267,1.194-0.559
	C66.729,11.186,66.764,10.625,66.276,10.495z M24.098,21.979c-0.003,0.035,0.028,0.188,0.028,0.198
	c-0.027,0.131-0.03,0.261-0.072,0.39C24.028,22.646,24,22.725,24,22.803c0,0.001,0,0.001,0,0.003c0,0.046-0.051,0.091-0.073,0.135
	c-0.081,0.166-0.182,0.326-0.284,0.479c-0.021,0.031-0.045,0.062-0.067,0.094c-0.008,0.011-0.016,0.021-0.021,0.027
	c-0.007,0.009-0.016,0.02-0.029,0.035c-0.075,0.095-0.155,0.186-0.237,0.271c-0.488,0.526-1.126,0.887-1.833,1.103
	c0.073-0.588,0.393-1.14,0.765-1.603c0.468-0.582,1.103-1.169,1.802-1.459c0.075-0.03,0.032-0.082,0.081-0.144
	c0,0.004-0.104,0.009-0.104,0.011c0,0.008,0,0.015,0,0.023C24,21.847,24.103,21.913,24.098,21.979z M33.784,24.293
	c-0.107-0.448-0.073-1.049,0.109-1.547c0.008-0.012,0.044-0.095,0.05-0.105c0.029-0.053,0.061-0.104,0.093-0.154
	c0.006-0.01,0.061-0.083,0.068-0.098c0.029-0.033,0.059-0.068,0.089-0.101c0.083-0.095,0.175-0.181,0.271-0.264
	c0.007-0.006,0.011-0.011,0.017-0.015c0.009-0.005,0.019-0.014,0.036-0.026c0.066-0.05,0.138-0.097,0.207-0.142
	c0.053-0.034,0.108-0.064,0.162-0.096c0.019-0.011,0.131-0.064,0.154-0.077c0.106-0.044,0.216-0.081,0.328-0.109
	c0.017-0.004,0.084-0.02,0.102-0.021c0.048-0.008,0.094-0.01,0.143-0.012c-0.02,0.002,0.106,0.005,0.137,0.01
	c0.016,0.003,0.028,0.005,0.039,0.006c0.003,0.003,0.01,0.006,0.023,0.012c0.014,0.006,0.041,0.021,0.06,0.03
	c0.018,0.016,0.037,0.031,0.053,0.047c-0.024-0.021,0.012,0.028,0.042,0.071c0.004,0.02,0.046,0.117,0.053,0.143
	c0.051,0.194,0.033,0.513-0.018,0.689c-0.004-0.001-0.05,0.099-0.056,0.107c-0.011,0.018-0.108,0.15-0.103,0.148
	c-0.119,0.143-0.256,0.273-0.395,0.397c-0.237,0.212-0.586,0.446-0.904,0.646c-0.277,0.174-0.517,0.322-0.757,0.465
	C33.785,24.297,33.784,24.295,33.784,24.293z M50.49,18.479c-0.054,0.483-0.208,1.085-0.377,1.628
	c-0.087,0.276-0.18,0.547-0.279,0.811c-0.001-0.003-0.002-0.005-0.003-0.007c-0.117-0.279-0.232-0.566-0.298-0.861
	c-0.018-0.077-0.031-0.156-0.044-0.234c-0.007-0.045-0.014-0.089-0.02-0.135c-0.002-0.017-0.014-0.108-0.018-0.134
	c-0.049-0.478-0.06-0.959-0.035-1.438c0.008-0.125,0.02-0.249,0.032-0.373c0.005-0.047,0.012-0.093,0.019-0.139
	c0,0.008,0.018-0.11,0.019-0.116c0.021-0.112,0.051-0.223,0.081-0.333c0.016-0.052,0.033-0.104,0.051-0.154
	c0.01-0.028,0.016-0.048,0.02-0.06c0.003-0.004,0.006-0.012,0.012-0.023c0.019-0.037,0.115-0.185,0.112-0.19
	c0.013-0.015,0.026-0.028,0.04-0.042c0.002-0.002,0.005,0.116,0.007,0.114c0.006-0.002,0.012,0.114,0.017,0.114
	c0.007,0,0.014,0,0.02,0c-0.077,0,0.086-0.108,0.125-0.101c0.008,0.002,0.013-0.056,0.02-0.056c0.009,0.004,0.021-0.021,0.041-0.014
	c0.06,0.022,0.117,0.035,0.175,0.064c-0.143-0.069,0.023,0.023,0.082,0.074c0.003,0.004,0.006,0.004,0.01,0.009
	c0.026,0.034,0.047,0.07,0.068,0.107c0.012,0.02,0.021,0.038,0.031,0.059c-0.013-0.021,0.036,0.098,0.044,0.125
	c0.031,0.096,0.05,0.194,0.066,0.293c0.002,0.009,0.008,0.063,0.011,0.09c0.004,0.043,0.006,0.085,0.008,0.128
	C50.539,17.95,50.52,18.216,50.49,18.479z"/>
</svg>
