<?xml version="1.0" encoding="utf-8"?>
<!-- Generator: Adobe Illustrator 16.0.0, SVG Export Plug-In . SVG Version: 6.00 Build 0)  -->
<!DOCTYPE svg PUBLIC "-//W3C//DTD SVG 1.1//EN" "http://www.w3.org/Graphics/SVG/1.1/DTD/svg11.dtd">
<svg version="1.1" id="Layer_1" xmlns="http://www.w3.org/2000/svg" xmlns:xlink="http://www.w3.org/1999/xlink" x="0px" y="0px"
	 width="1280px" height="800px" viewBox="0 0 1280 800" enable-background="new 0 0 1280 800" xml:space="preserve">
<g>
	<path d="M776,897.319c0,12.183,0,24.367,0,36.553c-5.747,21.356-12.377,42.531-16.894,64.146
		c-2.629,12.578-7.729,21.983-19.311,27.234c-14.784,6.707-29.779,12.937-46.816,20.287c2.173,17,4.188,35.536,6.975,53.959
		c5.298,35.054,9.854,70.278,16.89,104.993c8.906,43.95,20.031,87.454,30.014,131.186c0.809,3.548,1.445,8.015,0.018,11.032
		c-9.014,19.113-17.934,38.775-39.064,47.729c-20.22,8.564-40.594,16.92-61.403,23.854c-10.354,3.447-12.916,7.913-12.668,18.852
		c2.012,88.017,4.366,176.07,3.614,264.084c-0.197,23.069-8.664,46.984-17.711,68.687c-4.705,11.272-7.575,21.332-7.286,33.062
		c0.919,37.273,8.993,74.406,0.382,111.901c-3.645,15.867-5.436,32.459-5.62,48.755c-0.237,20.709-1.811,42.411,16.27,58.58
		c2.596,2.32,3.229,7.558,3.585,11.555c5.087,57.439-0.442,113.94-15.022,169.696c-2.692,10.301-3.588,21.091-5.033,31.693
		c-2.639,19.342-3.705,39.011-7.906,57.99c-5.63,25.43-15.308,49.915-8.329,76.921c3.369,13.03,4.65,26.825,5.14,40.339
		c0.812,22.204,11.8,37.36,29.381,49.499c37.767,26.074,75.225,52.598,112.76,79.007c4.58,3.219,9.211,6.512,13.208,10.395
		c20.535,19.965,15.984,46.676-10.174,59.224c-29.719,14.258-60.672,15.76-91.648,5.66
		c-74.229-24.203-142.247-62.087-211.027-98.087c-18.026-9.436-20.555-26.872-8.51-39.299c12.155-12.533,12.836-18.141,2.206-32.203
		c-10.797-14.291-16.658-29.562-16.691-47.937c-0.142-84.802-1.999-169.603-1.312-254.384c0.332-40.56,1.217-81.528,14.707-120.747
		c1.097-3.192,0.56-7.384-0.396-10.777c-5.409-19.24-4.678-37.91,4.349-55.943c7.531-15.056,6.371-29.851,2.348-46.039
		c-14.898-59.86-31.828-119.406-31.992-181.982c-0.071-26.201,0.029-52.812-4.306-78.504c-6.469-38.307-16.789-75.962-25.474-113.9
		c-1.892-0.113-3.783-0.228-5.674-0.342c-8.658,13.077-19.854,25.162-25.471,39.434c-13.829,35.134-24.025,71.684-37.619,106.918
		c-22.469,58.231-40.55,117.91-51.763,179.012c-9.178,50.022-10.811,101.399-16.688,152.072
		c-11.381,98.093-23.326,196.119-35.175,294.158c-5.278,43.672-13.526,87.189-15.417,130.995
		c-1.251,28.998-5.246,55.347-21.088,79.704c-6.594,10.133-9.062,20.863-5.272,33.397c1.606,5.312-0.79,13.098-3.845,18.308
		c-7.551,12.883-15.594,25.739-25.319,36.985c-5.15,5.955-14.29,12.071-21.516,11.944c-22.389-0.416-44.748-3.595-67.076-6.069
		C19.811,2608.53,2.231,2601.12,0,2575.837c0-20.615,0-41.237,0-61.853c2.763-11.534,5.352-23.116,8.344-34.591
		c2.054-7.873,6.441-15.531,6.716-23.398c1.113-31.808-1.122-63.864,1.886-95.444c4.966-52.141,12.994-103.994,19.804-155.961
		c11.798-90.013,23.913-179.978,35.34-270.036c3.938-31.037,10.407-62.543,8.482-93.386c-5.569-89.288-13.178-178.341-4.434-267.856
		c5.137-52.591,8.926-105.315,13.582-157.95c0.939-10.616-6.805-23.298-17.706-26.685c-7.939-2.468-15.975-4.62-24.879-7.169
		c0.77-6.82,1.024-12.869,2.178-18.744c19.732-100.494,39.777-200.924,58.994-301.516c1.462-7.655-1.691-16.789-4.579-24.535
		c-4.787-12.842-13.632-24.605-16.274-37.727C80.81,965.995,76.438,932.537,71.62,899.2c-3.476-24.038-10.525-48.56-8.463-72.214
		c6.297-72.232,16.139-144.165,24.954-216.17c0.572-4.682,2.951-10.466,6.461-13.252c20.848-16.551,42.055-32.666,63.586-48.322
		c16.219-11.79,33.854-21.719,49.502-34.186c20.745-16.518,40.255-34.604,60.068-52.266c3.152-2.807,7.847-7.548,7.219-10.371
		c-5.935-26.624-4.889-55.395-20.005-74.99c-10.204-3.132-19.663-3.098-22.469-7.404c-12.36-18.958-26.136-37.521-25.271-62.482
		c0.293-8.463-2.731-19.093-8.167-25.293c-13.223-15.079-19.142-31.792-13.849-50.438c5.839-20.562,14.395-40.386,22.265-60.337
		c20.639-52.306,63.676-71.586,115.482-77.854c3.953-0.479,7.766-2.126,11.646-3.229c3.749,0,7.494,0,11.246,0
		c37.469,12.816,67.214,36.436,96.786,62.456c29.769,26.191,39.587,55.371,35.234,93.07c-1.214,10.526,5.178,21.91,7.974,32.925
		c1.087,4.289,4.165,10.261,2.435,12.725c-12.299,17.517-25.471,34.437-38.742,51.243c-2.173,2.757-8.544,3.575-9.033,6.066
		c-2.965,15.012-6.392,30.235-6.549,45.418c-0.182,17.205,3.39,34.417,4.376,51.679c0.51,8.926,4.101,13.832,12.551,15.908
		c37.83,9.281,73.347,29.38,114.255,24.36c1.586-0.198,3.34,0.948,6.177,1.831c-4.946,18.291-25.192,12.219-35.309,23.568
		c16.993,14.061,36.673,20.723,56.983,25.776c22.094,5.503,44.409,11.615,57.463,31.831c17.453,27.033,33.009,55.29,49.274,83.084
		c6.046,10.328,12.501,20.509,17.369,31.387c2.311,5.163,3.9,13.365,1.382,17.477c-8.457,13.795-4.976,25.899,1.857,38.306
		c19.979,36.292,33.539,74.876,42.484,115.288C765.991,869.236,771.527,883.159,776,897.319z"/>
</g>
</svg>
