<?xml version="1.0" encoding="utf-8"?>
<!-- Generator: Adobe Illustrator 16.0.0, SVG Export Plug-In . SVG Version: 6.00 Build 0)  -->
<!DOCTYPE svg PUBLIC "-//W3C//DTD SVG 1.1//EN" "http://www.w3.org/Graphics/SVG/1.1/DTD/svg11.dtd">
<svg version="1.1" id="Layer_1" xmlns="http://www.w3.org/2000/svg" xmlns:xlink="http://www.w3.org/1999/xlink" x="0px" y="0px"
	 width="30px" height="30px" viewBox="0 0 30 30" enable-background="new 0 0 30 30" xml:space="preserve">
<g>
	<path fill="#FFFFFF" d="M28.6,1.034c0.221,0,0.399,0.179,0.399,0.399v27.168C28.999,28.821,28.82,29,28.6,29H1.432
		c-0.22,0-0.399-0.179-0.399-0.399V1.433c0-0.22,0.179-0.399,0.399-0.399H28.6 M28.6,0.034H1.432c-0.772,0-1.399,0.626-1.399,1.399
		v27.168C0.033,29.373,0.659,30,1.432,30H28.6c0.772,0,1.399-0.627,1.399-1.399V1.433C29.999,0.66,29.372,0.034,28.6,0.034
		L28.6,0.034z"/>
</g>
<g id="Livello_x0020_1">
	<path fill="#FFFFFF" d="M26.679,7.787c-0.859,0.379-1.781,0.637-2.749,0.751c0.988-0.591,1.747-1.531,2.102-2.648
		c-0.925,0.55-1.948,0.947-3.038,1.163c-0.873-0.93-2.115-1.511-3.494-1.511c-2.64,0-4.784,2.144-4.784,4.785
		c0,0.375,0.042,0.741,0.125,1.089c-3.977-0.199-7.502-2.105-9.862-5.001C4.567,7.123,4.331,7.944,4.331,8.821
		c0,1.66,0.846,3.125,2.129,3.981c-0.782-0.024-1.52-0.24-2.167-0.599c0,0.021,0,0.039,0,0.06c0,2.317,1.649,4.253,3.838,4.69
		c-0.4,0.108-0.825,0.167-1.26,0.167c-0.31,0-0.609-0.031-0.901-0.087c0.609,1.9,2.377,3.285,4.468,3.324
		c-1.639,1.284-3.699,2.049-5.944,2.049c-0.386,0-0.765-0.024-1.142-0.066c2.116,1.357,4.632,2.15,7.336,2.15
		c8.801,0,13.614-7.29,13.614-13.613c0-0.208-0.005-0.414-0.015-0.619c0.936-0.675,1.747-1.518,2.388-2.478L26.679,7.787z"/>
</g>
</svg>
