<?xml version="1.0" encoding="utf-8"?>
<!-- Generator: Adobe Illustrator 16.0.0, SVG Export Plug-In . SVG Version: 6.00 Build 0)  -->
<!DOCTYPE svg PUBLIC "-//W3C//DTD SVG 1.1//EN" "http://www.w3.org/Graphics/SVG/1.1/DTD/svg11.dtd">
<svg version="1.1" id="Layer_1" xmlns="http://www.w3.org/2000/svg" xmlns:xlink="http://www.w3.org/1999/xlink" x="0px" y="0px"
	 width="30px" height="30px" viewBox="241 0 30 30" enable-background="new 241 0 30 30" xml:space="preserve">
<path fill="#FFFFFF" d="M264.814,10.961c-0.995,5.604-6.554,10.35-8.226,11.435c-1.673,1.084-3.198-0.434-3.751-1.582
	c-0.633-1.31-2.532-8.406-3.028-8.995c-0.497-0.587-1.989,0.588-1.989,0.588l-0.723-0.948c0,0,3.029-3.617,5.333-4.069
	c2.444-0.479,2.44,3.752,3.028,6.101c0.568,2.272,0.95,3.573,1.446,3.573c0.497,0,1.447-1.267,2.486-3.21
	c1.041-1.944-0.045-3.662-2.08-2.44C258.125,6.531,265.809,5.357,264.814,10.961z"/>
<g id="Layer_2">
	<g>
		<path fill="#FFFFFF" d="M269.068,1.062c0.514,0,0.932,0.418,0.932,0.932v26.074c0,0.514-0.418,0.932-0.932,0.932h-26.074
			c-0.514,0-0.932-0.418-0.932-0.932V1.994c0-0.514,0.418-0.932,0.932-0.932H269.068 M269.068,0.062h-26.074
			c-1.067,0-1.932,0.865-1.932,1.932v26.074c0,1.066,0.865,1.932,1.932,1.932h26.074c1.066,0,1.932-0.865,1.932-1.932V1.994
			C271,0.927,270.135,0.062,269.068,0.062L269.068,0.062z"/>
	</g>
</g>
</svg>
