<?xml version="1.0" encoding="utf-8"?>
<!-- Generator: Adobe Illustrator 16.0.0, SVG Export Plug-In . SVG Version: 6.00 Build 0)  -->
<!DOCTYPE svg PUBLIC "-//W3C//DTD SVG 1.1//EN" "http://www.w3.org/Graphics/SVG/1.1/DTD/svg11.dtd">
<svg version="1.1" id="Layer_1" xmlns="http://www.w3.org/2000/svg" xmlns:xlink="http://www.w3.org/1999/xlink" x="0px" y="0px"
	 width="30px" height="30px" viewBox="0 0 30 30" enable-background="new 0 0 30 30" xml:space="preserve">
<g id="rect1942" inkscape:export-ydpi="7.7063322" inkscape:export-xdpi="7.7063322" inkscape:export-filename="C:\Documents and Settings\Molumen\Desktop\path3511111.png">
	<path fill="#FFFFFF" d="M25.226,1.442c1.764,0,3.199,1.435,3.199,3.199v20.585c0,1.764-1.436,3.198-3.199,3.198H4.639
		c-1.764,0-3.199-1.435-3.199-3.198V4.642c0-1.764,1.435-3.199,3.199-3.199H25.226 M25.226,0.188H4.639
		c-2.46,0-4.454,1.994-4.454,4.454v20.585c0,2.458,1.994,4.453,4.454,4.453h20.586c2.459,0,4.454-1.995,4.454-4.453V4.642
		C29.68,2.181,27.685,0.188,25.226,0.188L25.226,0.188z"/>
</g>
<path id="path9951" sodipodi:nodetypes="ccccsccccccc" fill="#FFFFFF" d="M3.119,11.466c2.555-2.292,4.836-6.288,7.485-5.458
	c4.388,1.136,2.492,9.531,4.986,13.456c3.417-1.924,5.632-5.977,4.711-8.079c-0.206-0.588,0.046-2.054-2.76-0.772
	c-0.728,0.332-0.698-0.956-0.57-1.13c2.598-2.853,4.096-4.042,5.873-3.969c1.494,0.249,4.121,1.928,3.639,5.954
	c-0.999,5.991-9.796,15.4-12.736,15.052c-3.367,0.744-5.078-9.891-7.61-14.886l-2.316,0.896C2.867,12.679,2.998,12.069,3.119,11.466
	L3.119,11.466z"/>
</svg>
